<?xml version="1.0" standalone="no"?><!DOCTYPE svg PUBLIC "-//W3C//DTD SVG 1.1//EN" "http://www.w3.org/Graphics/SVG/1.1/DTD/svg11.dtd"><svg t="1711691250156" class="icon" viewBox="0 0 1024 1024" version="1.1" xmlns="http://www.w3.org/2000/svg" p-id="1147" xmlns:xlink="http://www.w3.org/1999/xlink" width="200" height="200"><path d="M221.05 767.22s85.51 99.49 305.83 76.19C747.2 820.11 844.65 630.5 865.83 526.7c21.18-103.8 3.18-259.51-132.4-373.91-25.88 60.01-512.38 614.43-512.38 614.43z" fill="#386732" p-id="1148"></path><path d="M742.48 209.99s42.85 28.6 51.86 40.25c9 11.65 22.24 51.37 30.72 60.91 8.47 9.53 28.07 54.55 29.13 76.79 1.06 22.24-16.42 69.19-10.59 91 5.83 21.81 11.65 53.06 2.65 75.83-9 22.77-33.9 47.67-41.31 71.5-7.41 23.83-28.07 77.32-51.37 87.39-23.3 10.06-51.85 39.19-22.22 41.57-31.27 17.21-67.29 33.63-89.53 39.46S587.8 825.41 587.27 827c-0.53 1.59-42.16 14.07-42.16 14.07s33.16-23.07 35.81-32.61c2.65-9.53-32.31-24.36-60.91-16.95-28.6 7.41-95.33 19.67-113.34 49.55-38.97-3.01-41.84-6.66-41.84-6.66s34.95-11.12 39.72-22.77c4.77-11.65-11.65-14.83-11.65-14.83l24.43-11.17s19.53 2.69 30.12 1.63 88.45-43.43 108.57-58.79c20.13-15.36 40.25-43.96 43.43-65.67 17.66-27.92 32.31-39.19 32.31-39.19s-2.65 32.84 3.18 40.78c5.83 7.94 30.72-13.77 41.31-30.72 10.59-16.95 28.07-31.78 12.71-63.02 11.65-40.25 20.5-48.37 12.63-70.79 11.6-31.1 21.31-61.83 21.31-61.83s17.52-0.31 19.59 6.57c2.07 6.89-4.81 49.25 4.19 64.61s20.13 29.13 19.6 48.72c-0.53 19.6-18.54 68.85-46.08 79.44s-35.48 21.18-44.49 34.95c-9 13.77-13.24 18.01-37.6 27.01s-48.72 66.73-38.66 76.79 57.73-25.95 77.32-37.07c19.6-11.12 56.14-30.72 63.02-48.72s26.48-50.84 47.67-72.56c21.18-21.71 34.95-54.02 25.95-84.21-9-30.19-29.66-58.26-32.31-93.21-2.65-34.95-13.24-50.84-17.48-68.32-4.24-17.48 9-19.6 17.48-7.94 8.47 11.65 22.24 22.24 23.3-4.24 1.06-26.48-10.59-57.73-25.95-65.14-15.36-7.41-35.97-2.12-35.97-2.12v-82.6z" fill="#2E5D2F" p-id="1149"></path><path d="M729.2 158.09l-60.88 28.64-57.75 352.68-378.15 132.4-94.48-221.77-38.99 18.4s-13.77 156.77 67.79 249.98 164.18 93.21 259.51 64.61c95.33-28.6 229.38-170.54 273.04-277.52 43.68-106.98 55.33-200.19 29.91-347.42z" fill="#49A758" p-id="1150"></path><path d="M694.9 174.22L117.63 459.63s-3.98 93.57 14.87 140.18c18.85 46.61 78.74 177.95 235.1 153.59 156.37-24.36 261.72-159.94 310.51-271.16s40.9-269.38 16.79-308.02z" fill="#E4D18F" p-id="1151"></path><path d="M682.31 179.78l-553.7 274.89s-4.24 85.8 13.77 132.4c18.01 46.61 75.21 177.95 224.56 153.59S616.92 580.72 663.52 469.5c46.61-111.22 41.82-251.08 18.79-289.72z" fill="#B92237" p-id="1152"></path><path d="M258.54 462.05c4.24-23.27-28.6-32.8-56.85-18.68 0 0-18.01 8.12-22.95 26.83-4.94 18.71 10.59 24.01 28.25 22.6 17.66-1.41 47.32-7.48 51.55-30.75zM258.92 511.52s-41.33 31.78-45.21 61.44c-3.88 29.66 24.36 19.77 31.78 14.65 7.41-5.12 36.01-28.78 37.07-57.38 1.05-28.6-14.45-23.3-23.64-18.71zM342.93 499.87s-18.01 33.84-19.77 55.58c-1.77 21.74 0.35 42.92 9.89 46.81 9.53 3.88 20.83-10.95 26.13-21.18 5.3-10.24 13.42-47.17 9.18-65.6-4.25-18.44-11.31-27.97-25.43-15.61zM408.96 532.7s-8.83 57.2 0 75.56 19.77 32.84 32.84 30.01c13.06-2.82 17.65-18.88 15.54-42.63-2.13-23.75-20.84-89.42-48.38-62.94zM447.09 413.72s-8.83 21.5-4.94 34.76c3.88 13.26 16.59 50.82 31.78 59.4 15.18 8.58 29.31 5.05 31.78-17.54 2.46-22.6-28.61-96.4-58.62-76.62zM541.01 381.23c-5.2 1.03-20.83 12.71-8.47 41.66 12.36 28.95 37.78 36.37 56.85 34.6 19.07-1.77 30.72-14.83 24.36-32.84-6.37-18-30.02-51.89-72.74-43.42zM607.38 268.25c-18.06 5.23-60.05 21.71-60.21 45.55-0.16 23.83 16.34 30.17 41.98 24.88s49.48-18 55.3-38.65c5.83-20.66-21.19-36.38-37.07-31.78zM334.1 421.84c-12.88-6.1-26.48 44.8-15.36 39.88 11.13-4.93 25.43-35.12 15.36-39.88zM387.59 419.19s-7.94 46.15 3.71 46.11c11.65-0.03 5.83-59.35-3.71-46.11zM464.39 354.58s27.01 17.48 30.19 18.54c3.18 1.06 9-11.65 0-20.65s-31.25-12.72-30.19 2.11z" fill="#961E23" p-id="1153"></path><path d="M183.16 472.68s2.65-6.89 13.77-14.83 39.72-13.24 48.19-5.83c8.47 7.41 7.41 23.13-15.18 31.25s-45.89 9.54-46.78-10.59zM258.9 525.53s-27.89 23.42-34.95 36.13c-7.06 12.71-7.06 23.66 0 25.77 7.06 2.12 30.72-15.18 41.66-26.83 10.95-11.65 13.77-18.71 12.36-28.6-1.42-9.89-14.67-10.28-19.07-6.47zM348.23 517.87c-8.16 7.83-14.83 25.77-17.65 41.66-2.82 15.89 1.18 34.25 6.95 36.01s22.36-22.24 25.89-35.66c3.52-13.41 4.63-61.03-15.19-42.01zM420.28 553.18c-6.51 10.36-9.31 30.72-4.67 48.72 4.64 18.01 12.06 32.13 21.59 31.78 9.53-0.35 22.24-10.59 16.59-40.25-5.64-29.66-20.48-61-33.51-40.25zM461.74 431.37c-6.59 4.71-8.37 28.07-3.92 39.72 4.45 11.65 20.34 31.08 30.4 28.78 10.06-2.3 18.14-18.82 11.16-37.82s-26.52-38.62-37.64-30.68zM547.17 398.53c-2.71 3.82-9.17 22.96 11.49 38.22 20.66 15.27 35.49 15.64 46.08 7.85s4.68-28.6-8.52-38.13c-13.2-9.52-40.41-20.12-49.05-7.94zM584.79 285.9c-1.34 0.57-22.6 12.71-24.72 23.3-2.12 10.59 4.24 21.89 14.83 21.89s43.08-5.6 57.9-27.16-9.53-34.27-48.01-18.03z" fill="#231815" p-id="1154"></path></svg>